<svg width="30" height="29" viewBox="0 0 30 29" fill="none" xmlns="http://www.w3.org/2000/svg">
<path d="M27.2861 0.237885H2.71387C1.21503 0.237885 0 1.37191 0 2.77083V25.7049C0 27.1039 1.21503 28.2379 2.71387 28.2379H27.2861C28.785 28.2379 30 27.1039 30 25.7049V2.77083C30 1.37191 28.785 0.237885 27.2861 0.237885ZM8.5104 25.1579H5.13988C4.70347 25.1579 4.35029 24.8277 4.35029 24.4209V11.2652C4.35029 10.8579 4.70405 10.5283 5.13988 10.5283H8.5104C8.94682 10.5283 9.3 10.8585 9.3 11.2652V24.4209C9.3 24.8283 8.94624 25.1579 8.5104 25.1579ZM6.81272 9.2923C5.04913 9.2923 3.61908 7.95758 3.61908 6.31156C3.61908 4.66555 5.04913 3.33083 6.81272 3.33083C8.5763 3.33083 10.0064 4.66555 10.0064 6.31156C10.0064 7.95758 8.5763 9.2923 6.81272 9.2923ZM26.8503 24.4797C26.8503 24.8541 26.5254 25.1573 26.1249 25.1573H22.5139C22.1127 25.1573 21.7879 24.8541 21.7879 24.4797V18.3106C21.7879 17.3902 22.0763 14.2778 19.2191 14.2778C17.0029 14.2778 16.5532 16.4083 16.463 17.3643V24.4803C16.463 24.8547 16.1381 25.1579 15.737 25.1579H12.2393C11.8382 25.1579 11.5133 24.8547 11.5133 24.4803V11.2059C11.5133 10.8315 11.8382 10.5283 12.2393 10.5283H15.737C16.1381 10.5283 16.463 10.8315 16.463 11.2059V12.354C17.2861 11.1989 18.5098 10.3076 21.115 10.3076C26.8838 10.3076 26.8509 15.3455 26.8509 18.1136V24.4808L26.8503 24.4797Z" fill="#98CB15"/>
</svg>
