<svg width="58" height="43" viewBox="0 0 58 43" fill="none" xmlns="http://www.w3.org/2000/svg">
<rect width="58" height="43" rx="21.5" fill="#0D3451"/>
<path d="M15 20C13.8954 20 13 20.8954 13 22C13 23.1046 13.8954 24 15 24L15 20ZM46.4142 23.4142C47.1953 22.6332 47.1953 21.3668 46.4142 20.5858L33.6863 7.85787C32.9052 7.07682 31.6389 7.07682 30.8579 7.85787C30.0768 8.63891 30.0768 9.90524 30.8579 10.6863L42.1716 22L30.8579 33.3137C30.0768 34.0948 30.0768 35.3611 30.8579 36.1421C31.6389 36.9232 32.9052 36.9232 33.6863 36.1421L46.4142 23.4142ZM15 22L15 24L45 24L45 22L45 20L15 20L15 22Z" fill="white"/>
</svg>
